<?xml version="1.0" encoding="utf-8"?>
<!-- Generator: Adobe Illustrator 23.0.1, SVG Export Plug-In . SVG Version: 6.00 Build 0)  -->
<svg version="1.1" id="Livello_1" xmlns="http://www.w3.org/2000/svg" xmlns:xlink="http://www.w3.org/1999/xlink" x="0px" y="0px"
	 viewBox="0 0 419.5 101.3" style="enable-background:new 0 0 419.5 101.3;" xml:space="preserve">
<g>
	<path d="M81.4,38.7c-2.1-2.3-4.6-3.1-7.3-3.1c-7.8,0-12.4,6.9-12.4,15.1c0,9,5.6,13.9,12.1,13.9c2.8,0,5.6-1,7.6-3.4v2.6h6.5V25.6
		h-6.5C81.4,25.6,81.4,38.7,81.4,38.7z M75,58.7c-6.4,0-6.4-8.2-6.4-8.7c0-4.3,2.1-8.3,6.6-8.3c2.2,0,3.8,1,4.8,2.5
		c1.2,1.8,1.4,4.3,1.5,6.1C81.4,56.2,78.3,58.7,75,58.7z"/>
	<rect x="95.1" y="36.5" width="6.5" height="27.3"/>
	<rect x="95.1" y="25.6" width="6.5" height="6.6"/>
	<path d="M129,49.5c-1.7-1.4-3.3-1.6-9-2.7c-3.5-0.6-5.5-1.1-5.5-3.1c0-1.4,1.4-2.8,4.5-2.8c4.8,0,6.7,2.7,7.4,4.2l4.6-4.3
		c-0.5-0.7-1.4-1.6-2.8-2.5c-1.9-1.3-4.9-2.6-9-2.6c-7.5,0-11.7,4.3-11.7,8.9c0,2.5,1.2,6.2,7.7,7.8c1,0.3,5.5,1.1,6.4,1.3
		s2.8,0.6,2.8,2.3c0,1.4-1.6,3.2-5.4,3.2s-6.2-1.5-7.9-3.5l-4.9,4c3.4,3.3,8.3,4.9,13.1,4.9c8.5,0,12.3-5.1,12.3-9.3
		C131.8,53,130.7,50.8,129,49.5z"/>
	<path d="M224.4,35.7c-4.8,0-7.6,2.7-8.7,4.2c-1.8-3.2-5-4.2-7.6-4.2s-6.4,1.1-8.6,3.9v-3.1H193v27.3h6.5V52.4
		c0-2.7,0.1-5.2,1.2-7.4c1.1-2,3.1-3.2,5-3.2c2.3,0,3.7,1.4,4.2,3.2c0.2,0.8,0.2,1.5,0.2,3.5v15.2h6.5V51c0-2.3,0.2-4.5,1.4-6.6
		c0.9-1.4,2.6-2.6,4.6-2.6c5,0,4.6,4.3,4.6,6.9v15.1h6.5V46.6c0-2.8,0.1-5.7-2.1-8.1C229.7,36.4,227.1,35.7,224.4,35.7z"/>
	<rect x="240.8" y="36.5" width="6.5" height="27.3"/>
	<rect x="240.8" y="25.6" width="6.5" height="6.6"/>
	<path d="M274.7,49.5c-1.7-1.4-3.3-1.6-9-2.7c-3.5-0.6-5.5-1.1-5.5-3.1c0-1.4,1.4-2.8,4.5-2.8c4.8,0,6.7,2.7,7.4,4.2l4.6-4.3
		c-0.5-0.7-1.4-1.6-2.8-2.5c-1.9-1.3-4.9-2.6-9-2.6c-7.5,0-11.7,4.3-11.7,8.9c0,2.5,1.2,6.2,7.7,7.8c1,0.3,5.5,1.1,6.4,1.3
		s2.8,0.6,2.8,2.3c0,1.4-1.6,3.2-5.4,3.2s-6.2-1.5-7.9-3.5l-4.9,4c3.4,3.3,8.3,4.9,13.1,4.9c8.5,0,12.3-5.1,12.3-9.3
		C277.5,53,276.4,50.8,274.7,49.5z"/>
	<path d="M301,48.1c-0.1,3.8-0.1,5.6-1.1,7.4c-0.9,1.4-2.6,2.9-5.3,2.9c-2.4,0-4.4-1-5.1-3.4c-0.2-0.7-0.2-1.6-0.2-2.7V36.6h-6.6
		v15.8c0,4.1,0,6.7,1.9,9c1,1.3,3.1,3.2,7.6,3.2c5,0,7.7-2.3,8.9-3.4V64h6.6V36.7H301V48.1z"/>
	<path d="M321,40.4v-3.9h-6.3v27.3h6.3V53.7c0-4.5,0.1-7.3,2.8-9.5c2-1.5,4.5-1.6,5.9-1.6v-6.7C323.6,35.7,321.8,38.9,321,40.4z"/>
	<path d="M356.7,59.4V44.9c0-3-0.1-5.5-3.3-7.5c-2.4-1.4-5.6-1.7-8.2-1.7c-1.7,0-8.2,0-10.9,4.8c-0.9,1.6-1,2.7-1.1,4.1l6.7,0.4
		c0-0.8-0.1-1.5,0.7-2.4c0.7-0.9,2.1-1.7,4.9-1.7c4.5,0,4.6,2.8,4.6,4.2c-2.4,0.8-2.8,0.9-8.5,2c-2.6,0.5-6.8,1.4-8.8,5.3
		c-0.5,1.1-0.9,2.3-0.9,3.7c0,4.7,3.7,8.5,9.9,8.5c3.8,0,6.7-1.6,8.1-2.8c0,0.4,0.1,1.5,0.2,2.1h7.8
		C356.7,62.2,356.7,61.5,356.7,59.4z M350.1,53.2c0,0.8,0,1.6-0.4,2.5c-0.7,1.6-3.1,3.2-6.4,3.2c-2.6,0-4.4-1.1-4.4-3.2
		c0-2.9,3.1-3.4,5.5-3.8c3-0.5,4.4-1,5.7-1.6L350.1,53.2L350.1,53.2z"/>
	<path d="M181.8,63.9c0.1-0.4-0.1-0.9-0.5-1.2c-1.7-1.3-3.4-2.3-5-3.2c-0.4-0.2-0.8-0.3-1.2-0.1s-0.7,0.7-0.8,1.4c0,0.3,0,0.5,0,0.8
		c0,0.1,0,0.2,0,0.3h-0.7c-0.5,0-1,0-1.5,0c-3.4,0-6.4-0.1-9.2-0.1c-5.2-0.1,0.9-0.1-5.2-0.1c0,0,2,0,1.9,0c-3.9,0-5.4,0.1-9.3,0.2
		c-2.2,0-2.4,0.1-4.6,0.1c-0.6,0-1.1,0-1.8-0.1c-0.3,0-0.6-0.1-0.9-0.1c0-0.6,0-1.1,0-1.6c0-1.3,0-2.6,0-3.9c0-0.8-0.2-1.6-0.5-2.6
		c-0.1-0.5-0.4-0.9-0.8-1c-0.3-0.1-0.7-0.1-1,0c-0.5,0.2-0.7,1.1-0.8,1.6c-0.1,0.3,0,0.6,0.1,0.8s0.1,0.4,0.1,0.6c0,1.4,0,2.8,0,4.3
		c0,0.5,0,1,0,1.6c-0.4,0-0.7-0.1-1-0.1c-0.8-0.1-1.6-0.2-2.4-0.2c-1.3-0.1-2.7-0.2-3.4,1.3c-0.5,1,0.2,2.3,1.7,3.2
		c2.2,1.3,3.3,3.2,3.5,6.2c0.1,1,0.2,1.9,0.5,2.6c0.3,0.7,1,0.8,1.4,0.8l0,0c0.4,0,0.9-0.5,1.1-0.9c0.3-0.6,0.4-1.4,0.5-2.1
		c0.3-1.9,0.6-3.7,0.9-5.6l0.3-2.1h0.7c0.5,0,1,0,1.4,0c1.3,0,0.6,0,1.8,0c2.8,0,1.7,0,4.5-0.1c14.5-0.6,14.1-0.3,27.4,0.3h0.2
		c0.4,0,0.9,0,1.3-0.1C181.3,64.9,181.7,64.4,181.8,63.9z M140.3,64.7l-0.2,2l-1.9-2.2L140.3,64.7z"/>
	<path d="M185.3,51.6c-2.4,1-4,2.8-5,5.6c-0.2,0.8,0.1,1.4,0.7,1.6c0.4,0.2,1.3-0.2,1.7-0.6c0.4-0.4,0.7-0.8,0.9-1.3
		c0.1-0.2,0.2-0.4,0.3-0.6c0.4-0.6,0.6-0.8,0.6-0.9c0,0.3-0.3,1.2-0.4,1.7c-0.1,0.3-0.1,0.5-0.2,0.6c-0.2,1.2-0.5,2.5-0.8,3.7
		c-0.4,1.8-0.9,3.7-1.2,5.6c-0.5,3.1-0.9,6.3-1.2,9.4v0.2c-0.1,0.7-0.2,2.2,1.2,2.5c0.2,0,0.3,0,0.4,0c1.1,0,1.5-1,1.8-1.9
		c0.2-0.7,0.4-1.4,0.6-2c0.2-0.7,0.4-1.5,0.7-2.2c0.4-1.1,0.5-2.3-1.3-3l0.7-3.5c0.5-2.5,1-4.9,1.5-7.4c0.1-0.5,0.2-1,0.3-1.5
		c0.3-1.3,0.6-2.6,0.7-3.9c0.1-0.8-0.1-1.6-0.6-2C186.5,51.4,185.9,51.4,185.3,51.6z"/>
</g>
</svg>
