<?xml version="1.0" encoding="utf-8"?>
<!-- Generator: Adobe Illustrator 23.0.1, SVG Export Plug-In . SVG Version: 6.00 Build 0)  -->
<svg version="1.1" id="Livello_1" xmlns="http://www.w3.org/2000/svg" xmlns:xlink="http://www.w3.org/1999/xlink" x="0px" y="0px"
	 viewBox="0 0 296.8 53.8" style="enable-background:new 0 0 296.8 53.8;" xml:space="preserve">
<g>
	<path d="M19.7,13.1c-2.1-2.3-4.6-3.1-7.3-3.1C4.6,10,0,16.9,0,25.1C0,34.1,5.6,39,12.1,39c2.8,0,5.6-1,7.6-3.4v2.6h6.5V0h-6.5
		C19.7,0,19.7,13.1,19.7,13.1z M13.3,33.1c-6.4,0-6.4-8.2-6.4-8.7c0-4.3,2.1-8.3,6.6-8.3c2.2,0,3.8,1,4.8,2.5
		c1.2,1.8,1.4,4.3,1.5,6.1C19.7,30.6,16.6,33.1,13.3,33.1z"/>
	<rect x="33.4" y="10.9" width="6.5" height="27.3"/>
	<rect x="33.4" y="0" width="6.5" height="6.6"/>
	<path d="M67.3,23.9c-1.7-1.4-3.3-1.6-9-2.7c-3.5-0.6-5.5-1.1-5.5-3.1c0-1.4,1.4-2.8,4.5-2.8c4.8,0,6.7,2.7,7.4,4.2l4.6-4.3
		c-0.5-0.7-1.4-1.6-2.8-2.5c-1.9-1.3-4.9-2.6-9-2.6c-7.5,0-11.7,4.3-11.7,8.9c0,2.5,1.2,6.2,7.7,7.8c1,0.3,5.5,1.1,6.4,1.3
		s2.8,0.6,2.8,2.3c0,1.4-1.6,3.2-5.4,3.2s-6.2-1.5-7.9-3.5l-4.9,4c3.4,3.3,8.3,4.9,13.1,4.9c8.5,0,12.3-5.1,12.3-9.3
		C70.1,27.4,69,25.2,67.3,23.9z"/>
	<path d="M162.7,10.1c-4.8,0-7.6,2.7-8.7,4.2c-1.8-3.2-5-4.2-7.6-4.2s-6.4,1.1-8.6,3.9v-3.1h-6.5v27.3h6.5V26.8
		c0-2.7,0.1-5.2,1.2-7.4c1.1-2,3.1-3.2,5-3.2c2.3,0,3.7,1.4,4.2,3.2c0.2,0.8,0.2,1.5,0.2,3.5v15.2h6.5V25.4c0-2.3,0.2-4.5,1.4-6.6
		c0.9-1.4,2.6-2.6,4.6-2.6c5,0,4.6,4.3,4.6,6.9v15.1h6.5V21c0-2.8,0.1-5.7-2.1-8.1C168,10.8,165.4,10.1,162.7,10.1z"/>
	<rect x="179.1" y="10.9" width="6.5" height="27.3"/>
	<rect x="179.1" y="0" width="6.5" height="6.6"/>
	<path d="M213,23.9c-1.7-1.4-3.3-1.6-9-2.7c-3.5-0.6-5.5-1.1-5.5-3.1c0-1.4,1.4-2.8,4.5-2.8c4.8,0,6.7,2.7,7.4,4.2l4.6-4.3
		c-0.5-0.7-1.4-1.6-2.8-2.5c-1.9-1.3-4.9-2.6-9-2.6c-7.5,0-11.7,4.3-11.7,8.9c0,2.5,1.2,6.2,7.7,7.8c1,0.3,5.5,1.1,6.4,1.3
		s2.8,0.6,2.8,2.3c0,1.4-1.6,3.2-5.4,3.2s-6.2-1.5-7.9-3.5l-4.9,4c3.4,3.3,8.3,4.9,13.1,4.9c8.5,0,12.3-5.1,12.3-9.3
		C215.8,27.4,214.7,25.2,213,23.9z"/>
	<path d="M239.3,22.5c-0.1,3.8-0.1,5.6-1.1,7.4c-0.9,1.4-2.6,2.9-5.3,2.9c-2.4,0-4.4-1-5.1-3.4c-0.2-0.7-0.2-1.6-0.2-2.7V11H221
		v15.8c0,4.1,0,6.7,1.9,9c1,1.3,3.1,3.2,7.6,3.2c5,0,7.7-2.3,8.9-3.4v2.8h6.6V11.1h-6.7V22.5z"/>
	<path d="M259.3,14.8v-3.9H253v27.3h6.3V28.1c0-4.5,0.1-7.3,2.8-9.5c2-1.5,4.5-1.6,5.9-1.6v-6.7C261.9,10.1,260.1,13.3,259.3,14.8z"
		/>
	<path d="M295,33.8V19.3c0-3-0.1-5.5-3.3-7.5c-2.4-1.4-5.6-1.7-8.2-1.7c-1.7,0-8.2,0-10.9,4.8c-0.9,1.6-1,2.7-1.1,4.1l6.7,0.4
		c0-0.8-0.1-1.5,0.7-2.4c0.7-0.9,2.1-1.7,4.9-1.7c4.5,0,4.6,2.8,4.6,4.2c-2.4,0.8-2.8,0.9-8.5,2c-2.6,0.5-6.8,1.4-8.8,5.3
		c-0.5,1.1-0.9,2.3-0.9,3.7c0,4.7,3.7,8.5,9.9,8.5c3.8,0,6.7-1.6,8.1-2.8c0,0.4,0.1,1.5,0.2,2.1h7.8C295,36.6,295,35.9,295,33.8z
		 M288.4,27.6c0,0.8,0,1.6-0.4,2.5c-0.7,1.6-3.1,3.2-6.4,3.2c-2.6,0-4.4-1.1-4.4-3.2c0-2.9,3.1-3.4,5.5-3.8c3-0.5,4.4-1,5.7-1.6
		L288.4,27.6L288.4,27.6z"/>
	<path d="M120.1,38.3c0.1-0.4-0.1-0.9-0.5-1.2c-1.7-1.3-3.4-2.3-5-3.2c-0.4-0.2-0.8-0.3-1.2-0.1s-0.7,0.7-0.8,1.4c0,0.3,0,0.5,0,0.8
		c0,0.1,0,0.2,0,0.3h-0.7c-0.5,0-1,0-1.5,0c-3.4,0-6.4-0.1-9.2-0.1c-5.2-0.1,0.9-0.1-5.2-0.1c0,0,2,0,1.9,0c-3.9,0-5.4,0.1-9.3,0.2
		c-2.2,0-2.4,0.1-4.6,0.1c-0.6,0-1.1,0-1.8-0.1c-0.3,0-0.6-0.1-0.9-0.1c0-0.6,0-1.1,0-1.6c0-1.3,0-2.6,0-3.9c0-0.8-0.2-1.6-0.5-2.6
		c-0.1-0.5-0.4-0.9-0.8-1c-0.3-0.1-0.7-0.1-1,0c-0.5,0.2-0.7,1.1-0.8,1.6c-0.1,0.3,0,0.6,0.1,0.8s0.1,0.4,0.1,0.6c0,1.4,0,2.8,0,4.3
		c0,0.5,0,1,0,1.6c-0.4,0-0.7-0.1-1-0.1c-0.8-0.1-1.6-0.2-2.4-0.2c-1.3-0.1-2.7-0.2-3.4,1.3c-0.5,1,0.2,2.3,1.7,3.2
		c2.2,1.3,3.3,3.2,3.5,6.2c0.1,1,0.2,1.9,0.5,2.6s1,0.8,1.4,0.8l0,0c0.4,0,0.9-0.5,1.1-0.9c0.3-0.6,0.4-1.4,0.5-2.1
		c0.3-1.9,0.6-3.7,0.9-5.6l0.3-2.1h0.7c0.5,0,1,0,1.4,0c1.3,0,0.6,0,1.8,0c2.8,0,1.7,0,4.5-0.1c14.5-0.6,14.1-0.3,27.4,0.3h0.2
		c0.4,0,0.9,0,1.3-0.1C119.6,39.3,120,38.8,120.1,38.3z M78.6,39.1l-0.2,2l-1.9-2.2L78.6,39.1z"/>
	<path d="M123.6,26c-2.4,1-4,2.8-5,5.6c-0.2,0.8,0.1,1.4,0.7,1.6c0.4,0.2,1.3-0.2,1.7-0.6c0.4-0.4,0.7-0.8,0.9-1.3
		c0.1-0.2,0.2-0.4,0.3-0.6c0.4-0.6,0.6-0.8,0.6-0.9c0,0.3-0.3,1.2-0.4,1.7c-0.1,0.3-0.1,0.5-0.2,0.6c-0.2,1.2-0.5,2.5-0.8,3.7
		c-0.4,1.8-0.9,3.7-1.2,5.6c-0.5,3.1-0.9,6.3-1.2,9.4V51c-0.1,0.7-0.2,2.2,1.2,2.5c0.2,0,0.3,0,0.4,0c1.1,0,1.5-1,1.8-1.9
		c0.2-0.7,0.4-1.4,0.6-2c0.2-0.7,0.4-1.5,0.7-2.2c0.4-1.1,0.5-2.3-1.3-3l0.7-3.5c0.5-2.5,1-4.9,1.5-7.4c0.1-0.5,0.2-1,0.3-1.5
		c0.3-1.3,0.6-2.6,0.7-3.9c0.1-0.8-0.1-1.6-0.6-2C124.8,25.8,124.2,25.8,123.6,26z"/>
</g>
</svg>
